<svg xmlns="http://www.w3.org/2000/svg" viewBox="0 0 160 88" role="img" aria-labelledby="ssTitle">
  <title id="ssTitle">ShoppingSmart Logo</title>
  <!-- Chuyển từ PNG gốc: hai giỏ đỏ/xanh đối diện, nền trong suốt -->
  <g fill="none" stroke-linecap="round" stroke-linejoin="round">
    <!-- Khung đáy xanh nối hai giỏ -->
    <g stroke="#0054D2" stroke-width="3">
      <path d="M47 62 H72 V74 H88 V74 H88 V62 H113"/>
      <path d="M72 74 H88"/>
    </g>
    <circle cx="76" cy="74" r="5" fill="#0054D2" stroke="#0054D2" stroke-width="2"/>
    <circle cx="84" cy="74" r="5" fill="#0054D2" stroke="#0054D2" stroke-width="2"/>
    <!-- Giỏ trái (Coles – đỏ) -->
    <path d="M34 26c0-6-5-10-11-10S12 20 12 26" stroke="#E31E24" stroke-width="3"/>
    <path d="M36 30h22l-5 24H31L26 30h10z" fill="#fff5f5" stroke="#E31E24" stroke-width="2.5"/>
    <line x1="30" y1="36" x2="50" y2="36" stroke="#E31E24" stroke-width="2" opacity="0.55"/>
    <line x1="38" y1="30" x2="38" y2="54" stroke="#E31E24" stroke-width="2" opacity="0.55"/>
    <circle cx="33" cy="62" r="5" fill="#E31E24" stroke="#E31E24" stroke-width="2"/>
    <circle cx="47" cy="62" r="5" fill="#E31E24" stroke="#E31E24" stroke-width="2"/>
    <!-- Giỏ phải (Woolworths – xanh) -->
    <path d="M126 26c0-6 5-10 11-10s11 4 11 10" stroke="#00953A" stroke-width="3"/>
    <path d="M124 30H102l5 24h22l5-24H114z" fill="#f0fdf4" stroke="#00953A" stroke-width="2.5"/>
    <line x1="110" y1="36" x2="130" y2="36" stroke="#00953A" stroke-width="2" opacity="0.55"/>
    <line x1="122" y1="30" x2="122" y2="54" stroke="#00953A" stroke-width="2" opacity="0.55"/>
    <circle cx="113" cy="62" r="5" fill="#00953A" stroke="#00953A" stroke-width="2"/>
    <circle cx="127" cy="62" r="5" fill="#00953A" stroke="#00953A" stroke-width="2"/>
  </g>
</svg>
