<svg xmlns="http://www.w3.org/2000/svg" viewBox="0 0 160 88" role="img" aria-labelledby="scTitle">
  <title id="scTitle">SmartChoice</title>
  <rect x="12" y="74" width="136" height="7" rx="3.5" fill="#2563eb"/>
  <!-- left cart (red): mirrored locally so basket opens outward left -->
  <g transform="translate(40,0) scale(-1,1) translate(-40,0)" fill="none" stroke-linecap="round" stroke-linejoin="round">
    <path d="M34 26c0-6-5-10-11-10S12 20 12 26" stroke="#e01a22" stroke-width="3"/>
    <path d="M36 30h22l-5 24H31L26 30h10z" fill="#fff5f5" stroke="#e01a22" stroke-width="2.5"/>
    <line x1="30" y1="36" x2="50" y2="36" stroke="#e01a22" stroke-width="2" opacity="0.55"/>
    <circle cx="33" cy="62" r="5" fill="#e01a22" stroke="#e01a22" stroke-width="2"/>
    <circle cx="47" cy="62" r="5" fill="#e01a22" stroke="#e01a22" stroke-width="2"/>
  </g>
  <!-- right cart (green): mirrored locally so basket opens outward right -->
  <g transform="translate(120,0) scale(-1,1) translate(-120,0)" fill="none" stroke-linecap="round" stroke-linejoin="round">
    <path d="M126 26c0-6 5-10 11-10s11 4 11 10" stroke="#008a00" stroke-width="3"/>
    <path d="M124 30H102l5 24h22l5-24H114z" fill="#f0fdf4" stroke="#008a00" stroke-width="2.5"/>
    <line x1="110" y1="36" x2="130" y2="36" stroke="#008a00" stroke-width="2" opacity="0.55"/>
    <circle cx="113" cy="62" r="5" fill="#008a00" stroke="#008a00" stroke-width="2"/>
    <circle cx="127" cy="62" r="5" fill="#008a00" stroke="#008a00" stroke-width="2"/>
  </g>
  <path d="M72 58h16" stroke="#2563eb" stroke-width="2.5" stroke-linecap="round" opacity="0.45"/>
</svg>
